<mxfile host="www.draw.io" modified="2019-12-13T04:05:12.563Z" agent="Mozilla/5.0 (Windows NT 10.0; Win64; x64) AppleWebKit/537.36 (KHTML, like Gecko) Chrome/79.0.3945.79 Safari/537.36" etag="7VM3C7F0Jh1OVijLkL7n" version="12.4.1" type="github" pages="1">
  <diagram id="DeA6SfbDIB_wA8Y5Bu7G" name="Page-1">
    <mxGraphModel dx="910" dy="523" grid="1" gridSize="10" guides="1" tooltips="1" connect="1" arrows="1" fold="1" page="1" pageScale="1" pageWidth="827" pageHeight="1169" math="0" shadow="0">
      <root>
        <mxCell id="0"/>
        <mxCell id="1" parent="0"/>
        <mxCell id="aClntk3mmwxr7zWyo_LQ-6" style="edgeStyle=orthogonalEdgeStyle;rounded=0;orthogonalLoop=1;jettySize=auto;html=1;" edge="1" parent="1" source="aClntk3mmwxr7zWyo_LQ-1">
          <mxGeometry relative="1" as="geometry">
            <mxPoint x="300" y="210" as="targetPoint"/>
          </mxGeometry>
        </mxCell>
        <mxCell id="aClntk3mmwxr7zWyo_LQ-1" value="录入字典对象" style="rounded=1;whiteSpace=wrap;html=1;" vertex="1" parent="1">
          <mxGeometry x="100" y="180" width="120" height="60" as="geometry"/>
        </mxCell>
        <mxCell id="aClntk3mmwxr7zWyo_LQ-7" style="edgeStyle=orthogonalEdgeStyle;rounded=0;orthogonalLoop=1;jettySize=auto;html=1;" edge="1" parent="1" source="aClntk3mmwxr7zWyo_LQ-2" target="aClntk3mmwxr7zWyo_LQ-3">
          <mxGeometry relative="1" as="geometry"/>
        </mxCell>
        <mxCell id="aClntk3mmwxr7zWyo_LQ-2" value="添加字典条目对象" style="rounded=0;whiteSpace=wrap;html=1;" vertex="1" parent="1">
          <mxGeometry x="290" y="180" width="120" height="60" as="geometry"/>
        </mxCell>
        <mxCell id="aClntk3mmwxr7zWyo_LQ-11" style="edgeStyle=orthogonalEdgeStyle;rounded=0;orthogonalLoop=1;jettySize=auto;html=1;" edge="1" parent="1">
          <mxGeometry relative="1" as="geometry">
            <mxPoint x="520" y="130" as="targetPoint"/>
            <mxPoint x="520" y="170" as="sourcePoint"/>
          </mxGeometry>
        </mxCell>
        <mxCell id="aClntk3mmwxr7zWyo_LQ-3" value="字典" style="shape=cylinder;whiteSpace=wrap;html=1;boundedLbl=1;backgroundOutline=1;" vertex="1" parent="1">
          <mxGeometry x="470" y="170" width="60" height="80" as="geometry"/>
        </mxCell>
        <mxCell id="aClntk3mmwxr7zWyo_LQ-9" style="edgeStyle=orthogonalEdgeStyle;rounded=0;orthogonalLoop=1;jettySize=auto;html=1;entryX=0.5;entryY=0;entryDx=0;entryDy=0;" edge="1" parent="1" source="aClntk3mmwxr7zWyo_LQ-5" target="aClntk3mmwxr7zWyo_LQ-3">
          <mxGeometry relative="1" as="geometry"/>
        </mxCell>
        <mxCell id="aClntk3mmwxr7zWyo_LQ-12" style="edgeStyle=orthogonalEdgeStyle;rounded=0;orthogonalLoop=1;jettySize=auto;html=1;entryX=0;entryY=0.5;entryDx=0;entryDy=0;" edge="1" parent="1" source="aClntk3mmwxr7zWyo_LQ-5" target="aClntk3mmwxr7zWyo_LQ-8">
          <mxGeometry relative="1" as="geometry"/>
        </mxCell>
        <mxCell id="aClntk3mmwxr7zWyo_LQ-5" value="传入字典类型，和字典数值" style="rounded=1;whiteSpace=wrap;html=1;" vertex="1" parent="1">
          <mxGeometry x="440" y="60" width="120" height="60" as="geometry"/>
        </mxCell>
        <mxCell id="aClntk3mmwxr7zWyo_LQ-8" value="获取字典条目对象" style="rounded=0;whiteSpace=wrap;html=1;" vertex="1" parent="1">
          <mxGeometry x="610" y="60" width="120" height="60" as="geometry"/>
        </mxCell>
      </root>
    </mxGraphModel>
  </diagram>
</mxfile>
